<svg width="357" height="50" viewBox="0 0 357 50" fill="none" xmlns="http://www.w3.org/2000/svg">
<g clip-path="url(#clip0_1243_950)">
<path d="M39.0078 27.9629C38.2313 28.3993 37.8431 29.1666 37.8431 30.2666V44.6563C37.8431 44.6945 37.8049 44.7515 37.7292 44.8272C36.8156 45.5119 35.8117 46.0668 34.7462 46.4761C33.6612 46.8953 32.5387 47.2099 31.394 47.4155C30.2481 47.6219 29.0903 47.7548 27.9275 47.8132C26.7721 47.8699 25.6449 47.8978 24.5467 47.8978C22.8792 47.8978 21.1941 47.8408 19.4896 47.7272C16.4966 47.4996 13.7978 46.7419 11.3928 45.4522C8.9867 44.1632 6.94093 42.486 5.2562 40.4188C3.57037 38.3526 2.27312 36.0015 1.36409 33.3658C0.454697 30.7309 0 27.9533 0 25.0335C0 21.6585 0.605651 18.6724 1.81806 16.0754C3.03009 13.4787 4.68764 11.2974 6.78998 9.53457C8.89305 7.7717 11.3447 6.44486 14.1481 5.55295C16.9509 4.66251 19.9439 4.21655 23.126 4.21655C24.8306 4.21655 26.544 4.31141 28.268 4.50038C29.9657 4.6875 31.661 4.89609 33.3534 5.12611C34.1108 5.24045 34.8593 5.35369 35.5975 5.46766C36.3365 5.58163 37.0839 5.67648 37.8416 5.75185C37.9926 5.75185 38.069 5.82832 38.069 5.97942C37.9951 7.32125 37.8624 8.65918 37.6712 9.98935C37.4799 11.3067 37.2906 12.6243 37.1034 13.9423C37.0652 14.2081 37.027 14.464 36.9895 14.7099C36.9513 14.957 36.9131 15.193 36.8757 15.421C36.8757 15.5353 36.8088 15.6015 36.6766 15.6202C36.5433 15.6397 36.4581 15.5919 36.4206 15.4779C36.1176 13.8478 35.5689 12.4449 34.7733 11.2691C33.9774 10.0941 33.0019 9.11766 31.8472 8.34008C30.6913 7.56324 29.3937 6.99449 27.9547 6.63346C26.5146 6.27354 25.0186 6.09266 23.4658 6.09266C20.8522 6.09266 18.4175 6.52942 16.1645 7.40148C13.9101 8.27427 11.9496 9.4967 10.2832 11.0702C8.61648 12.6441 7.3005 14.5401 6.33455 16.7577C5.37006 18.9765 4.88708 21.4132 4.88708 24.0669C4.88708 26.9489 5.4167 29.6688 6.47815 32.2283C7.5385 34.7879 8.98744 37.0257 10.825 38.9397C12.6617 40.8555 14.8397 42.3721 17.3593 43.4904C19.8774 44.6088 22.5957 45.1677 25.513 45.1677C26.7625 45.1677 28.0315 45.0254 29.3195 44.7408C30.6069 44.457 31.7062 43.8408 32.6155 42.893V30.0956C32.6155 29.1857 32.3316 28.5702 31.7635 28.2474C31.1953 27.9257 30.5507 27.65 29.8315 27.4228C29.5232 27.3453 29.2196 27.2503 28.9221 27.1382C28.6184 27.0246 28.3161 26.8735 28.0127 26.6835C27.8989 26.6077 27.8611 26.5224 27.8989 26.4276C27.9364 26.3335 28.0127 26.2853 28.1259 26.2853C30.3986 26.2853 32.6431 26.3052 34.8593 26.3423C37.0755 26.3805 39.3199 26.4563 41.5927 26.5699L41.6496 27.0246C40.6642 27.2143 39.7835 27.5272 39.0078 27.9629V27.9629ZM68.9238 43.0636C68.4219 43.0239 67.92 42.9859 67.4179 42.9496C67.1065 42.9109 66.7939 42.8826 66.4806 42.8647C66.1494 42.8452 65.8177 42.8356 65.486 42.836C64.6141 42.836 63.7432 42.8743 62.8724 42.9504C62.0005 43.0268 61.1293 43.1022 60.2584 43.1776C60.1442 43.1776 60.0678 43.1206 60.0311 43.007C59.9929 42.893 60.0311 42.7989 60.1446 42.7228L62.3608 41.6427C61.7221 39.876 61.0496 38.1217 60.3436 36.3809C59.6304 34.6241 58.958 32.8509 58.3269 31.0629H49.5194C49.241 31.7913 48.9664 32.5212 48.6956 33.2526C48.3248 34.2501 47.9745 35.2551 47.6448 36.2669C47.323 37.247 47.0198 38.2331 46.7354 39.2246C46.4699 40.1541 46.3376 40.8265 46.3376 41.2438C46.3376 41.8121 46.5834 42.1824 47.0766 42.3526C47.5684 42.5235 48.0426 42.6471 48.4969 42.7228V43.1776C47.777 43.1022 47.0384 43.0353 46.2811 42.9783C44.768 42.8653 43.2486 42.8653 41.7356 42.9783C40.9775 43.0353 40.2202 43.1022 39.4628 43.1776C39.3493 43.2158 39.2825 43.1592 39.2638 43.007C39.2443 42.8559 39.292 42.7607 39.4059 42.7228C41.4888 42.4577 42.948 41.3574 43.781 39.4239V39.4805C44.8792 36.7132 45.9402 33.9445 46.9631 31.1765C47.9899 28.3978 48.9939 25.6107 49.9749 22.8154C50.6562 20.9199 51.3191 19.0331 51.9633 17.1559C52.6146 15.2586 53.2965 13.3719 54.0087 11.4967C54.0462 11.3831 54.1226 11.3261 54.2357 11.3261C54.3496 11.3261 54.4252 11.3831 54.4631 11.4967C54.6504 12.0224 54.8494 12.5438 55.0599 13.0607C55.2695 13.5778 55.4683 14.0993 55.6564 14.6246C57.2239 18.9101 58.8436 23.1762 60.5152 27.4221C62.204 31.7152 64.1294 35.9114 66.2823 39.9912C66.7366 40.8643 67.314 41.4893 68.0151 41.8684C68.7155 42.2471 69.521 42.4746 70.43 42.5504V43.0052C69.8982 43.0831 69.3968 43.1018 68.9238 43.0636V43.0636ZM53.9514 17.3555C53.3232 19.3138 52.7077 21.2763 52.1051 23.2427C51.4913 25.2368 50.8378 27.2184 50.1449 29.1864H57.4748L53.9514 17.3555V17.3555ZM111.434 43.1202H106.832C105.316 43.1202 103.821 43.0831 102.343 43.0066C102.116 43.0066 102.04 42.9118 102.116 42.7224C102.153 42.6467 102.182 42.571 102.201 42.4952C102.221 42.4166 102.249 42.3404 102.286 42.268L102.626 41.2441C102.74 40.9026 102.797 40.5809 102.797 40.2768C102.797 38.1158 102.692 35.9827 102.484 33.8787C102.274 31.7619 102.037 29.6479 101.774 27.5371C101.639 26.3892 101.497 25.2421 101.348 24.096C101.214 23.0923 101.11 21.9261 101.035 20.5982C99.6064 23.343 98.2237 26.1112 96.8869 28.9018C95.561 31.6702 94.2348 34.4757 92.91 37.3195C92.4607 38.2558 92.0154 39.1941 91.5742 40.1342C91.1334 41.0748 90.6883 42.0134 90.2391 42.95C90.2009 43.0265 90.144 43.064 90.0687 43.064C89.9923 43.064 89.9166 43.0265 89.8413 42.95C88.0986 40.5235 86.5927 38.0493 85.3241 35.528C84.0636 33.0249 82.8606 30.4932 81.7159 27.9349C81.1666 26.7353 80.6268 25.5314 80.0965 24.3232C79.567 23.1248 79.0083 21.9395 78.421 20.7684C78.3107 21.6883 78.1968 22.6078 78.0794 23.5268C77.9656 24.4184 77.8524 25.3 77.7386 26.1713C77.4379 28.4991 77.1727 30.8314 76.943 33.1673C76.714 35.5111 76.6001 37.8648 76.6018 40.2199C76.6018 40.9022 76.7723 41.3669 77.1135 41.6132C77.4547 41.8607 77.8708 42.0787 78.3633 42.2677C78.5143 42.3438 78.7229 42.4287 78.9881 42.5228C79.2529 42.6188 79.4233 42.6842 79.4997 42.7221C79.6139 42.7982 79.6507 42.8927 79.6139 43.0063C79.5757 43.1199 79.4997 43.1768 79.3866 43.1768C78.8559 43.1768 78.3354 43.1684 77.8242 43.1485C77.3028 43.1291 76.7818 43.1008 76.2614 43.0636C75.7315 43.0259 75.2011 42.9974 74.6703 42.9783C74.1392 42.9599 73.6088 42.9504 73.0792 42.9504H71.9425C71.6016 42.9504 71.2226 42.9886 70.8061 43.0643C70.6922 43.1026 70.6158 43.0452 70.5787 42.8938C70.5405 42.7427 70.5787 42.6471 70.693 42.6096C70.9956 42.5338 71.2226 42.4956 71.3747 42.4956C71.7393 42.4324 72.0998 42.3469 72.4541 42.2397C72.7567 42.1452 73.041 41.8897 73.3062 41.4721C73.3819 41.3574 73.4851 40.8662 73.6188 39.993C73.751 39.1213 73.9027 38.0125 74.0735 36.6658C74.2439 35.3206 74.433 33.7938 74.6413 32.0875C74.8528 30.3447 75.0518 28.6004 75.2381 26.8548C75.4273 25.0732 75.6164 23.3199 75.8063 21.5938C75.9955 19.8688 76.1659 18.2857 76.3176 16.8445C76.4685 15.5934 76.5827 14.4842 76.6588 13.5173C76.7344 12.5504 76.8097 11.8588 76.8861 11.4412C76.8861 11.3272 76.9331 11.2621 77.0283 11.2419C77.1226 11.2235 77.2079 11.2515 77.2843 11.3272C77.7382 11.8206 78.3821 12.7971 79.2158 14.2563C80.0488 15.7166 80.949 17.4129 81.915 19.3467C82.9329 21.3873 83.9367 23.4349 84.9263 25.4893C85.8927 27.4941 86.8491 29.5037 87.7956 31.518C88.4394 32.846 88.9694 33.9835 89.3866 34.9309C89.8035 35.8791 90.1822 36.6754 90.5234 37.3195C91.1706 36.017 91.7863 34.6989 92.3697 33.3666C92.9945 31.9445 93.61 30.5324 94.2164 29.1294C95.569 25.9984 96.9708 22.8888 98.4211 19.8018C99.8979 16.6548 101.47 13.8493 103.137 11.3842C103.213 11.3085 103.288 11.2802 103.364 11.2985C103.44 11.3184 103.478 11.3842 103.478 11.4978C103.554 11.9526 103.62 12.5882 103.677 13.4033C103.734 14.2195 103.819 15.1574 103.933 16.2188C104.047 17.6221 104.189 19.1577 104.359 20.8257C104.529 22.4945 104.709 24.2011 104.899 25.9445C105.088 27.689 105.277 29.3857 105.467 31.0349C105.638 32.5459 105.837 34.0535 106.064 35.557C106.271 36.9221 106.47 38.0691 106.66 38.9974C106.85 39.9272 107.039 40.5052 107.229 40.732C107.645 41.3393 108.043 41.7279 108.422 41.8985C108.8 42.0695 109.255 42.193 109.786 42.2688C110.05 42.3449 110.326 42.3923 110.609 42.411C110.894 42.4305 111.187 42.5154 111.49 42.6666L111.434 43.1202V43.1202ZM129.655 40.2482C129.537 41.0913 129.424 41.9349 129.314 42.7791C129.314 42.8934 129.237 42.95 129.086 42.95L129.03 43.0066C128.726 43.1202 128.481 43.1772 128.292 43.1772C127.42 43.1772 126.539 43.1691 125.649 43.1489C124.769 43.1299 123.888 43.1203 123.007 43.1202C122.25 43.1202 121.511 43.1118 120.791 43.0927C120.053 43.0731 119.314 43.0636 118.575 43.064C117.553 43.064 116.52 43.0732 115.478 43.0927C114.436 43.1118 113.405 43.1405 112.382 43.1772V42.7224C112.95 42.7224 113.413 42.5996 113.774 42.3522C114.125 42.1159 114.409 41.7927 114.598 41.414C114.787 41.0353 114.91 40.6085 114.967 40.1342C115.024 39.661 115.052 39.1772 115.052 38.6846V15.0235C115.052 14.2654 114.872 13.7728 114.512 13.5452C114.145 13.3144 113.755 13.1237 113.347 12.9765L112.58 12.7202C112.296 12.6261 112.003 12.4835 111.7 12.2938C111.623 12.218 111.595 12.1327 111.615 12.0379C111.633 11.9438 111.7 11.8956 111.814 11.8956H128.007C128.163 11.8179 128.325 11.7513 128.49 11.6963C128.661 11.6393 128.821 11.5739 128.973 11.4971C129.162 11.4217 129.257 11.4971 129.257 11.7246C129.153 12.6496 129.01 13.5698 128.831 14.4831C128.66 15.336 128.48 16.1989 128.291 17.071C128.253 17.1849 128.167 17.2324 128.035 17.2132C127.902 17.1945 127.836 17.1283 127.836 17.014C127.76 15.6871 127.305 14.8158 126.473 14.3974C125.639 13.9805 124.616 13.7721 123.404 13.7721H118.916V25.432H125.506C125.696 25.432 125.942 25.3754 126.245 25.261C126.548 25.1471 126.85 25.0338 127.154 24.9199C127.55 24.701 127.969 24.5292 128.405 24.4077C128.594 24.3324 128.689 24.4077 128.689 24.6349C128.65 25.0897 128.604 25.5835 128.546 26.1136C128.494 26.6084 128.428 27.1015 128.347 27.5923C128.269 28.0635 128.212 28.538 128.177 29.0143C128.14 29.4905 128.083 29.9648 128.006 30.436C128.006 30.55 127.958 30.6265 127.864 30.6636C127.769 30.7018 127.684 30.6831 127.609 30.6066C127.419 30.4173 127.296 30.2283 127.239 30.0379C127.176 29.8284 127.11 29.6199 127.04 29.4125C126.964 29.1853 126.888 28.9577 126.813 28.7302C126.736 28.5026 126.604 28.2945 126.415 28.1048C126.225 27.9154 125.875 27.7735 125.364 27.6779C124.818 27.5788 124.268 27.503 123.716 27.4507C123.14 27.3947 122.562 27.3663 121.983 27.3658H118.971V39.0824C119.54 39.9173 120.344 40.5522 121.386 40.9879C122.427 41.4246 123.44 41.6419 124.426 41.6419C125.751 41.6419 126.878 41.2916 127.806 40.5897C128.734 39.8886 129.349 38.8934 129.653 37.6037L130.107 37.7177C129.925 38.5553 129.775 39.3994 129.655 40.2482V40.2482ZM164.302 23.1783C164.28 23.2438 164.232 23.2713 164.155 23.2599C164.079 23.2496 164.042 23.211 164.042 23.1456C164.042 22.4276 163.846 21.9221 163.455 21.6283C163.064 21.3349 162.52 21.1879 161.825 21.1879C161.52 21.1879 161.233 21.2044 160.96 21.2371C160.689 21.2695 160.401 21.3074 160.097 21.3511C159.879 21.3952 159.64 21.428 159.38 21.4496C159.119 21.4717 158.879 21.4824 158.662 21.4824V27.8776H163.062C163.214 27.8776 163.388 27.8121 163.584 27.682C163.779 27.5515 163.932 27.4206 164.04 27.2908C164.083 27.2474 164.133 27.2364 164.187 27.2577C164.241 27.2802 164.268 27.3232 164.268 27.3882C164.186 28.56 164.034 29.7258 163.812 30.8794C163.79 30.9449 163.742 30.9721 163.666 30.961C163.589 30.9507 163.552 30.9118 163.552 30.8467C163.573 30.1287 163.393 29.6342 163.014 29.3621C162.633 29.0904 162.095 28.9548 161.4 28.9548H158.662V35.4805C158.662 35.7408 158.716 36.0129 158.825 36.2963C158.933 36.5791 159.085 36.8291 159.281 37.0467C159.477 37.2643 159.704 37.4375 159.965 37.5688C160.226 37.6989 160.509 37.7643 160.813 37.7643V38.0254H160.585C160.345 38.0254 160.117 38.0143 159.9 37.993C159.683 37.9713 159.454 37.95 159.216 37.9272C158.988 37.9069 158.76 37.8907 158.531 37.8787C158.314 37.8677 158.096 37.8621 157.88 37.8621C157.663 37.8621 157.445 37.8732 157.228 37.8949L156.576 37.9599C156.078 38.0027 155.578 38.0246 155.078 38.0254H154.882C154.816 38.0254 154.779 37.9871 154.768 37.9107C154.756 37.8346 154.784 37.786 154.849 37.7643C155.24 37.6985 155.545 37.6177 155.761 37.5195C155.978 37.4213 156.136 37.2912 156.234 37.1279C156.332 36.9651 156.386 36.7588 156.397 36.5077C156.407 36.2577 156.413 35.9368 156.413 35.5456V21.9063C156.413 21.4059 156.315 21.096 156.12 20.9761C155.907 20.8499 155.677 20.7566 155.436 20.6993C155.302 20.6466 155.166 20.5976 155.029 20.5522C154.851 20.4916 154.681 20.4093 154.524 20.3074C154.459 20.264 154.436 20.2151 154.459 20.1607C154.48 20.107 154.524 20.0791 154.589 20.0791C155.958 20.1441 157.337 20.1772 158.728 20.1772H161.043C161.151 20.1772 161.265 20.1827 161.385 20.1938C161.504 20.2044 161.629 20.2099 161.76 20.2099C162.259 20.232 162.775 20.232 163.308 20.2099C163.84 20.1882 164.302 20.0688 164.693 19.8507C164.736 19.807 164.785 19.807 164.84 19.8507C164.893 19.8945 164.91 19.9489 164.888 20.014L164.302 23.1783V23.1783Z" fill="white"/>
<path d="M342.144 7.121C342.104 8.45703 341.925 9.66181 341.607 10.7379C341.567 10.8574 341.487 10.917 341.368 10.917C341.249 10.917 341.169 10.8574 341.129 10.7379C340.93 9.74196 340.622 8.93534 340.203 8.31659C339.798 7.71083 339.256 7.20918 338.62 6.85225C337.983 6.49343 337.266 6.24527 336.47 6.10482C335.641 5.96313 334.802 5.89314 333.961 5.89563H182.436V40.8107C182.436 42.4052 182.944 43.7607 183.959 44.8765C184.974 45.9931 186.238 46.6699 187.751 46.9096C187.87 46.9486 187.92 47.039 187.901 47.1776C187.88 47.3173 187.811 47.3864 187.692 47.3864C186.289 47.2667 184.886 47.1672 183.481 47.0879C182.067 47.0085 180.643 46.9688 179.211 46.9688C178.175 46.9688 177.15 46.9982 176.135 47.0581C175.119 47.1181 174.094 47.1883 173.059 47.2673C172.939 47.2673 172.869 47.1982 172.85 47.0581C172.829 46.9192 172.88 46.8291 172.999 46.7898C173.955 46.5905 174.701 46.371 175.239 46.132C175.777 45.8927 176.174 45.5747 176.434 45.1747C176.693 44.7769 176.852 44.2688 176.912 43.6504C176.972 43.0324 177.002 42.2449 177.002 41.2887V5.95482H167.147C165.871 5.95482 164.747 6.40299 163.772 7.30004C162.796 8.19674 162.069 9.20372 161.592 10.3192C161.512 10.4386 161.422 10.489 161.324 10.4684C161.224 10.4486 161.174 10.3787 161.174 10.2592C161.094 9.86107 161.055 9.50262 161.055 9.18313C161.055 8.38644 161.154 7.60924 161.353 6.85152C161.664 5.67787 162.003 4.51162 162.369 3.35372C162.488 2.97578 162.587 2.60666 162.667 2.24747C162.747 2.00887 162.866 1.96916 163.026 2.12799C163.862 2.64637 164.678 2.97578 165.475 3.11512C166.271 3.25482 167.186 3.32394 168.222 3.32394H338.442C338.761 3.32394 339.108 3.27431 339.487 3.17468C339.865 3.07504 340.214 2.98571 340.533 2.90593C340.761 2.86156 340.99 2.82173 341.22 2.78644C341.478 2.74747 341.747 2.70666 342.026 2.66696C342.145 2.66696 342.205 2.74747 342.205 2.90593V3.38387C342.203 4.6298 342.182 5.87564 342.144 7.121V7.121Z" fill="white"/>
<path d="M219.033 43.2912C217.046 43.1776 215.057 43.1204 213.067 43.1199C212.347 43.1199 211.636 43.1295 210.936 43.1486C210.234 43.1688 209.505 43.1964 208.748 43.2335C208.635 43.2335 208.568 43.1681 208.549 43.0346C208.53 42.9019 208.578 42.817 208.692 42.7787C209.865 42.4372 210.624 41.9824 210.965 41.4137C211.305 40.8449 211.477 39.9541 211.477 38.7405V26.9107H194.033V38.8545C194.033 41.2434 195.264 42.5519 197.726 42.7791C197.84 42.7791 197.897 42.8556 197.897 43.0067C197.897 43.1589 197.84 43.2339 197.726 43.2339H195.965C195.434 43.2339 194.866 43.2537 194.26 43.2905C193.843 43.2905 193.36 43.3001 192.811 43.3188C192.262 43.3387 191.778 43.3471 191.363 43.3471H189.942C189.45 43.3471 188.957 43.3284 188.466 43.2905C188.314 43.2905 188.133 43.282 187.926 43.2626C187.746 43.2448 187.566 43.2352 187.385 43.2339C187.271 43.2339 187.205 43.1681 187.187 43.035C187.167 42.9023 187.215 42.8173 187.329 42.7791C187.934 42.6651 188.427 42.5427 188.806 42.4096C189.184 42.2773 189.469 42.0879 189.658 41.8405C189.847 41.5942 189.97 41.2813 190.027 40.9019C190.084 40.5236 190.112 40.0302 190.112 39.4236V15.1942C190.112 14.3603 189.78 13.735 189.117 13.3177C188.455 12.9012 187.745 12.6736 186.987 12.6353V12.1806C188.578 12.2945 190.149 12.3515 191.703 12.3515C192.347 12.3515 192.99 12.3427 193.635 12.3228C194.279 12.3045 194.923 12.2945 195.567 12.2945H196.761C196.874 12.2945 196.931 12.371 196.931 12.5221C196.931 12.6743 196.874 12.7497 196.761 12.7497C196.079 12.7497 195.463 12.9581 194.914 13.3754C194.364 13.7931 194.09 14.3802 194.09 15.1387V25.035H211.478V15.3659C211.478 14.4552 211.24 13.8776 210.767 13.6306C210.293 13.3846 209.716 13.1666 209.034 12.9769C208.891 12.9417 208.749 12.9035 208.607 12.8626C208.466 12.8226 208.324 12.7846 208.181 12.7486C208.068 12.7107 208.02 12.6262 208.04 12.4927C208.058 12.3603 208.124 12.2938 208.239 12.2938C210.764 12.4543 213.295 12.5016 215.824 12.4357C216.6 12.417 217.367 12.3887 218.126 12.3508C218.239 12.3508 218.305 12.4173 218.325 12.5497C218.343 12.6828 218.296 12.7684 218.182 12.8056C217.348 12.9574 216.685 13.1754 216.194 13.4592C215.701 13.7438 215.455 14.3603 215.455 15.3078V38.6273C215.455 39.917 215.739 40.8835 216.306 41.528C216.875 42.1736 217.803 42.6085 219.091 42.8365L219.033 43.2912V43.2912ZM249.507 43.7177C248.828 43.8856 248.132 43.9715 247.433 43.9736C246.297 43.9736 245.274 43.7655 244.365 43.3478C243.456 42.9313 242.641 42.4008 241.922 41.7552C241.202 41.1111 240.53 40.3714 239.905 39.5372C239.28 38.7041 238.684 37.8505 238.115 36.978C237.58 36.1752 237.021 35.3881 236.44 34.6177C235.851 33.8412 235.208 33.1394 234.507 32.5133C233.806 31.8872 233.049 31.3857 232.234 31.0059C231.42 30.6273 230.502 30.4368 229.479 30.4368H228.569C228.303 30.4368 228.02 30.4751 227.717 30.5508V38.6273C227.717 39.7273 228.048 40.6659 228.711 41.4423C229.374 42.2199 230.254 42.6651 231.353 42.7791V43.2339C230.492 43.1594 229.63 43.0931 228.768 43.035C227.908 42.9779 227.046 42.9496 226.183 42.9501C225.311 42.9501 224.468 42.9883 223.654 43.064C222.839 43.1405 221.996 43.2346 221.126 43.3478C221.011 43.3861 220.926 43.3394 220.87 43.2056C220.814 43.0732 220.842 42.9688 220.955 42.8927C221.75 42.514 222.413 41.9456 222.944 41.1861C223.474 40.428 223.739 39.6129 223.739 38.7401V16.0475C223.739 15.1754 223.426 14.4078 222.801 13.7438C222.177 13.0806 221.428 12.6342 220.557 12.4067C220.443 12.3692 220.396 12.2842 220.415 12.1512C220.434 12.0188 220.5 11.9519 220.614 11.9519H231.808C232.981 11.9519 234.138 12.0942 235.274 12.3784C236.41 12.6626 237.413 13.1089 238.285 13.7151C239.156 14.3217 239.856 15.1177 240.388 16.1037C240.917 17.0901 241.183 18.2651 241.183 19.6302C241.183 21.4501 240.681 23.1762 239.677 24.8056C238.673 26.4365 237.546 27.8398 236.296 29.0148C236.713 29.4692 237.167 30.0482 237.66 30.7493C238.179 31.4878 238.709 32.2179 239.251 32.9394C240.115 34.118 240.996 35.2841 241.893 36.4372C242.821 37.6317 243.797 38.7122 244.819 39.6791C245.842 40.6464 246.902 41.4048 248.001 41.9541C249.099 42.5041 250.217 42.7034 251.353 42.5515L251.524 43.0063C250.877 43.3112 250.202 43.5496 249.507 43.7177V43.7177ZM236.722 18.7773C236.439 17.7916 236.012 16.9008 235.444 16.1041C234.883 15.3145 234.168 14.6471 233.341 14.142C232.508 13.6298 231.542 13.3743 230.443 13.3743C229.989 13.3743 229.534 13.4026 229.079 13.4592C228.627 13.5156 228.187 13.6403 227.772 13.8291V27.9912C228.416 28.1052 229.041 28.1813 229.647 28.2184C230.271 28.257 230.896 28.2759 231.522 28.2751C233.643 28.2751 235.11 27.6978 235.925 26.5401C236.739 25.3839 237.146 23.7817 237.146 21.7339C237.148 20.7493 237.007 19.7637 236.722 18.7773V18.7773ZM278.366 34.6743C277.475 36.5515 276.292 38.1721 274.814 39.5372C273.337 40.9026 271.623 41.9648 269.673 42.7225C267.721 43.4813 265.667 43.8603 263.508 43.8603C261.726 43.8603 259.88 43.4243 257.968 42.5519C256.057 41.6811 254.285 40.5309 252.712 39.139C251.121 37.7372 249.804 36.1442 248.762 34.3618C247.72 32.5795 247.2 30.7787 247.2 28.9585C247.2 26.1912 247.455 23.8111 247.967 21.8203C248.479 19.8295 249.302 18.1431 250.438 16.7578C251.576 15.374 253.071 14.2368 254.928 13.3456C256.783 12.4552 259.056 11.7247 261.746 11.1556L262.485 11.0986C264.909 10.9092 267.163 11.2603 269.246 12.1508C271.329 13.042 273.147 14.2934 274.702 15.9045C276.254 17.5166 277.476 19.4214 278.367 21.6203C279.256 23.8195 279.702 26.1324 279.702 28.5592C279.701 30.7592 279.255 32.7971 278.366 34.6743ZM262.943 12.9787C262.47 12.986 261.997 13.0173 261.527 13.0725L261.527 41.7864C261.984 41.8853 262.456 41.9541 262.942 41.9949L262.943 12.9787ZM266.328 41.8453C267.339 41.6659 268.275 41.3615 269.134 40.9309C270.61 40.1912 271.85 39.2063 272.855 37.9728C273.858 36.7412 274.616 35.31 275.128 33.6791C275.639 32.049 275.894 30.3236 275.894 28.5034C275.894 26.646 275.619 24.7883 275.071 22.9295C274.522 21.0721 273.707 19.4034 272.628 17.9247C271.549 16.446 270.221 15.2515 268.65 14.3412C267.921 13.9197 267.141 13.5943 266.328 13.3732V41.8453H266.328ZM265.342 13.1534C264.874 13.0717 264.402 13.0186 263.927 12.9942V42.0394H264.019C264.472 42.0394 264.914 42.0188 265.342 41.9784V13.1534ZM260.55 13.2269C259.67 13.4026 258.846 13.6692 258.081 14.028C256.584 14.7302 255.325 15.6971 254.302 16.9295C253.279 18.1622 252.493 19.5839 251.944 21.1949C251.395 22.807 251.121 24.5225 251.121 26.3423C251.121 28.2387 251.404 30.1159 251.973 31.9728C252.541 33.8309 253.383 35.5085 254.501 37.0059C255.618 38.5045 256.973 39.7173 258.564 40.6464C259.192 41.0128 259.858 41.3083 260.551 41.5276L260.55 13.2269V13.2269ZM313.408 12.6063C313.389 12.5876 313.341 12.5978 313.266 12.635C312.699 12.7991 312.14 12.9889 311.59 13.2037C311.002 13.4313 310.71 13.8295 310.71 14.3982L310.766 28.1056V30.4376C310.767 32.6089 310.729 34.7801 310.652 36.9501C310.575 39.105 310.443 41.2575 310.255 43.4056C310.255 43.482 310.207 43.5478 310.112 43.6045C310.017 43.6611 309.933 43.6523 309.857 43.5762C308.039 42.0214 306.221 40.3438 304.402 38.5427C302.578 36.7369 300.788 34.8976 299.032 33.0258C297.274 31.1529 295.541 29.2569 293.833 27.3383C292.185 25.4879 290.556 23.6203 288.947 21.7357C288.455 21.2115 287.982 20.671 287.526 20.1151C287.071 19.5592 286.597 19.0186 286.106 18.4942C285.995 19.4762 285.938 20.4636 285.935 21.4519C285.935 22.8931 285.954 24.3339 285.992 25.7743C286.03 27.2155 286.086 28.6563 286.163 30.0967C286.315 32.995 286.391 35.8967 286.39 38.7989C286.39 39.4442 286.447 39.9648 286.56 40.3629C286.675 40.7611 286.816 41.0743 286.987 41.3019C287.157 41.5291 287.364 41.6909 287.612 41.785C287.857 41.8802 288.113 41.9467 288.379 41.9839C288.682 42.0603 288.984 42.1453 289.288 42.2398C289.591 42.335 289.95 42.5339 290.367 42.8368C290.443 42.9129 290.471 42.9978 290.452 43.0931C290.433 43.1879 290.367 43.235 290.253 43.235C289.874 43.1971 289.505 43.16 289.145 43.1206C288.785 43.0835 288.416 43.0453 288.036 43.007C287.499 42.9309 286.959 42.8739 286.417 42.8361C285.878 42.7986 285.338 42.7798 284.798 42.7795C284.095 42.7813 283.392 42.8288 282.695 42.9217C281.975 43.0173 281.255 43.1206 280.536 43.235C280.422 43.2732 280.338 43.235 280.281 43.1206C280.224 43.007 280.233 42.9129 280.309 42.8368C280.612 42.5717 280.886 42.3629 281.133 42.2115C281.364 42.0684 281.601 41.9355 281.843 41.8129C282.297 41.5857 282.705 41.2725 283.065 40.8747C283.425 40.4765 283.605 39.8416 283.605 38.9688V12.3512L284.059 11.4405C284.097 11.3648 284.154 11.3085 284.23 11.2699C284.305 11.2324 284.362 11.2512 284.4 11.3265C288.433 15.5104 292.43 19.7288 296.39 23.9813C300.35 28.239 304.271 32.5334 308.151 36.864V36.6934C308.151 34.9497 308.142 33.2236 308.123 31.5177C308.104 29.8114 308.075 28.0677 308.038 26.2853C308 24.6552 307.961 22.921 307.924 21.0813C307.886 19.2427 307.868 17.5078 307.868 15.8773C307.868 15.2331 307.801 14.7115 307.668 14.3133C307.536 13.9151 307.356 13.6118 307.128 13.4026C306.901 13.1949 306.654 13.053 306.39 12.9765C306.129 12.902 305.863 12.8449 305.594 12.8056C305.317 12.7724 305.042 12.7249 304.77 12.6633C304.522 12.6055 304.295 12.4772 304.117 12.2938C304.041 12.2181 304.032 12.1232 304.089 12.0092C304.146 11.8956 304.212 11.8585 304.288 11.8956C305.159 12.0092 305.973 12.0662 306.731 12.0662H309.117C309.61 12.0662 310.111 12.0578 310.623 12.0379C311.144 12.0198 311.666 12.0292 312.186 12.0662C312.376 12.0662 312.584 12.0762 312.811 12.0949C313.019 12.1132 313.227 12.1227 313.436 12.1232L313.55 12.5784C313.474 12.6159 313.427 12.6258 313.408 12.6063V12.6063ZM334.921 40.2482C334.804 41.0913 334.69 41.9349 334.58 42.7791C334.58 42.8934 334.504 42.9501 334.353 42.9501L334.296 43.0067C333.993 43.1203 333.747 43.1773 333.557 43.1773C332.686 43.1773 331.805 43.1692 330.915 43.1489C330.035 43.1299 329.154 43.1204 328.273 43.1203C327.516 43.1203 326.777 43.1118 326.058 43.0927C325.319 43.0732 324.581 43.0636 323.842 43.064C322.819 43.064 321.786 43.0732 320.745 43.0927C319.702 43.1118 318.671 43.1405 317.648 43.1773V42.7225C318.216 42.7225 318.68 42.5997 319.04 42.3523C319.391 42.1159 319.675 41.7927 319.864 41.414C320.053 41.0353 320.177 40.6085 320.233 40.1342C320.29 39.6611 320.318 39.1773 320.318 38.6846V15.0236C320.318 14.2655 320.138 13.7728 319.778 13.5453C319.411 13.3143 319.021 13.1237 318.613 12.9765L317.846 12.7203C317.563 12.6262 317.268 12.4835 316.966 12.2938C316.89 12.2181 316.861 12.1328 316.881 12.0379C316.9 11.9438 316.966 11.8956 317.08 11.8956H333.273C333.424 11.8199 333.587 11.7534 333.756 11.6964C333.922 11.6418 334.083 11.5752 334.239 11.4971C334.429 11.4217 334.523 11.4971 334.523 11.7247C334.418 12.6496 334.276 13.5698 334.097 14.4831C333.926 15.3361 333.746 16.199 333.557 17.071C333.518 17.185 333.433 17.2324 333.301 17.2133C333.168 17.1945 333.102 17.1284 333.102 17.014C333.026 15.6872 332.571 14.8159 331.739 14.3975C330.905 13.9806 329.882 13.7721 328.67 13.7721H324.181V25.432H330.772C330.961 25.432 331.208 25.3754 331.511 25.2611L332.42 24.9199C332.816 24.7011 333.235 24.5292 333.67 24.4078C333.859 24.3324 333.954 24.4078 333.954 24.635C333.916 25.0898 333.868 25.5835 333.812 26.1137C333.76 26.6083 333.693 27.1014 333.613 27.5923C333.535 28.0635 333.478 28.538 333.443 29.0144C333.406 29.4905 333.349 29.9649 333.272 30.4361C333.272 30.5501 333.224 30.6265 333.13 30.6637C333.035 30.7019 332.949 30.6831 332.874 30.6067C332.684 30.4173 332.561 30.2284 332.505 30.0379C332.441 29.8286 332.375 29.6201 332.306 29.4126C332.229 29.1853 332.154 28.9578 332.078 28.7302C332.002 28.5026 331.87 28.2945 331.681 28.1048C331.49 27.9155 331.141 27.7736 330.629 27.678C330.084 27.5788 329.534 27.503 328.983 27.4508C328.406 27.3947 327.828 27.3664 327.249 27.3659H324.237V39.0824C324.805 39.9173 325.61 40.5523 326.652 40.9879C327.693 41.4247 328.706 41.642 329.691 41.642C331.017 41.642 332.144 41.2916 333.072 40.5898C334 39.8887 334.615 38.8934 334.919 37.6037L335.373 37.7177C335.191 38.5554 335.041 39.3995 334.921 40.2482V40.2482ZM355.88 38.5703C355.179 39.6703 354.289 40.6085 353.21 41.3861C352.13 42.1633 350.937 42.771 349.63 43.2056C348.322 43.6423 347.082 43.8596 345.908 43.8596C345.34 43.8596 344.743 43.7934 344.119 43.6603C343.493 43.528 342.925 43.3107 342.413 43.0067C341.901 42.7037 341.485 42.3151 341.163 41.8405C340.841 41.3666 340.681 40.7699 340.681 40.0489C340.681 39.5938 340.728 39.1383 340.823 38.6839C340.917 38.2291 341.002 37.7934 341.079 37.3751L341.362 36.0103C341.362 35.8964 341.438 35.8394 341.59 35.8394C341.741 35.8394 341.817 35.8964 341.817 36.0103V36.8633C341.817 37.6596 341.987 38.3618 342.328 38.9677C342.662 39.5667 343.105 40.0973 343.635 40.5317C344.165 40.9684 344.781 41.2905 345.482 41.4993C346.182 41.7074 346.893 41.8118 347.613 41.8118C348.295 41.8118 348.995 41.6982 349.716 41.471C350.42 41.2508 351.083 40.9143 351.676 40.4754C352.258 40.0446 352.75 39.5036 353.124 38.8831C353.502 38.2574 353.693 37.5659 353.693 36.807C353.693 36.0872 353.522 35.3762 353.181 34.6743C352.84 33.9732 352.385 33.2622 351.817 32.5416C351.216 31.7843 350.57 31.0626 349.885 30.3802C349.155 29.6507 348.417 28.9302 347.67 28.2188C346.869 27.456 346.074 26.6881 345.283 25.9151C344.487 25.1383 343.786 24.3423 343.18 23.5262C342.574 22.7114 342.082 21.8865 341.703 21.0523C341.324 20.2184 341.135 19.3659 341.135 18.4931C341.135 17.2048 341.495 16.0956 342.215 15.1655C342.933 14.2372 343.824 13.4787 344.885 12.8905C345.945 12.3034 347.101 11.8666 348.351 11.5824C349.601 11.2978 350.757 11.1556 351.818 11.1556C353.332 11.1556 354.716 11.3456 355.965 11.7243C356.08 11.8008 356.137 11.8762 356.137 11.9515C355.977 13.8738 355.75 15.7898 355.455 17.696C355.417 17.8096 355.34 17.867 355.228 17.867C355.113 17.867 355.037 17.8096 355 17.696C354.697 16.3692 354.119 15.2317 353.267 14.2835C352.415 13.3361 351.287 12.8615 349.886 12.8615C348.446 12.8615 347.244 13.3262 346.279 14.2548C345.313 15.1846 344.83 16.3688 344.83 17.8092C344.83 18.5684 344.991 19.2695 345.313 19.914C345.634 20.5596 346.051 21.185 346.562 21.7909C347.074 22.3978 347.671 22.9949 348.352 23.5824C349.049 24.1843 349.75 24.7816 350.455 25.3743C351.259 26.0266 352.045 26.6998 352.813 27.3934C353.567 28.0715 354.261 28.8138 354.887 29.6118C355.481 30.3708 355.978 31.202 356.364 32.0857C356.741 32.9585 356.932 33.9056 356.932 34.9295C356.931 36.2578 356.581 37.471 355.88 38.5703V38.5703ZM153.291 33.2453C152.785 34.3115 152.113 35.2328 151.273 36.0092C150.433 36.785 149.459 37.3879 148.35 37.8192C147.24 38.2504 146.074 38.4662 144.846 38.4662C143.834 38.4662 142.784 38.2184 141.698 37.7228C140.611 37.228 139.605 36.5743 138.71 35.7831C137.806 34.9865 137.058 34.0809 136.466 33.0681C135.874 32.0552 135.578 31.0313 135.578 29.9971C135.578 28.4239 135.724 27.071 136.014 25.9394C136.305 24.8081 136.773 23.8493 137.419 23.0629C138.065 22.2762 138.915 21.6298 139.97 21.1236C141.025 20.6173 142.317 20.2023 143.846 19.8787L144.266 19.8464C145.643 19.739 146.925 19.9383 148.109 20.4442C149.275 20.9389 150.33 21.6648 151.209 22.578C152.091 23.4945 152.785 24.5773 153.291 25.8269C153.797 27.0765 154.05 28.3916 154.05 29.7706C154.05 31.0203 153.797 32.1787 153.291 33.2453V33.2453ZM144.525 20.9144C144.249 20.9192 143.982 20.9372 143.721 20.9681V37.2879C143.981 37.3434 144.249 37.3831 144.525 37.4063L144.525 20.9144V20.9144ZM146.449 37.321C147.003 37.2262 147.54 37.0512 148.044 36.8015C148.883 36.3802 149.588 35.821 150.159 35.1203C150.729 34.4203 151.161 33.6067 151.451 32.6798C151.742 31.753 151.887 30.7725 151.887 29.7376C151.887 28.682 151.731 27.6262 151.419 26.5703C151.107 25.5144 150.644 24.5659 150.031 23.7254C149.428 22.8952 148.658 22.2012 147.77 21.6887C147.355 21.4495 146.912 21.2646 146.45 21.1387V37.321H146.449ZM145.89 21.0137C145.624 20.9676 145.355 20.9374 145.086 20.9232V37.4313H145.137C145.396 37.4313 145.647 37.4199 145.89 37.3964L145.89 21.0137ZM143.166 21.0559C142.682 21.1504 142.21 21.3032 141.763 21.5111C140.912 21.9103 140.197 22.46 139.615 23.1596C139.034 23.86 138.587 24.6684 138.275 25.5839C137.963 26.4997 137.807 27.4751 137.807 28.5096C137.807 29.5876 137.968 30.6537 138.292 31.7092C138.614 32.7655 139.093 33.7192 139.728 34.5699C140.35 35.4094 141.135 36.1135 142.038 36.639C142.394 36.8475 142.773 37.0157 143.167 37.1405L143.166 21.0559Z" fill="white"/>
</g>
<defs>
<clipPath id="clip0_1243_950">
<rect width="357" height="50" fill="white"/>
</clipPath>
</defs>
</svg>
